<mxfile host="65bd71144e">
    <diagram id="GwGcdAKrI81eXyLy9iIg" name="Page-1">
        <mxGraphModel dx="520" dy="488" grid="1" gridSize="10" guides="1" tooltips="1" connect="1" arrows="1" fold="1" page="1" pageScale="1" pageWidth="291" pageHeight="413" math="0" shadow="0">
            <root>
                <mxCell id="0"/>
                <mxCell id="1" parent="0"/>
                <mxCell id="2" value="&lt;b&gt;&lt;font style=&quot;font-size: 59px&quot; face=&quot;Tahoma&quot; color=&quot;#ffffff&quot;&gt;ISU&lt;/font&gt;&lt;/b&gt;" style="ellipse;whiteSpace=wrap;html=1;strokeColor=#36393d;fillColor=#00994D;" parent="1" vertex="1">
                    <mxGeometry x="41" y="90" width="210" height="200" as="geometry"/>
                </mxCell>
            </root>
        </mxGraphModel>
    </diagram>
</mxfile>